<svg width="896" height="126" viewBox="0 0 896 126" xmlns="http://www.w3.org/2000/svg">
<g>
<rect x="28" y="0" width="12" height="12" rx="2" fill="#216e39" stroke="#1b1f23" stroke-width="1"/>
<rect x="42" y="0" width="12" height="12" rx="2" fill="#9be9a8" stroke="#1b1f23" stroke-width="1"/>
<rect x="56" y="0" width="12" height="12" rx="2" fill="#9be9a8" stroke="#1b1f23" stroke-width="1"/>
<rect x="42" y="14" width="12" height="12" rx="2" fill="#9be9a8" stroke="#1b1f23" stroke-width="1"/>
<rect x="42" y="28" width="12" height="12" rx="2" fill="#40c463" stroke="#1b1f23" stroke-width="1"/>
<rect x="42" y="42" width="12" height="12" rx="2" fill="#40c463" stroke="#1b1f23" stroke-width="1"/>
<rect x="42" y="56" width="12" height="12" rx="2" fill="#9be9a8" stroke="#1b1f23" stroke-width="1"/>
<rect x="0" y="70" width="12" height="12" rx="2" fill="#40c463" stroke="#1b1f23" stroke-width="1"/>
<rect x="42" y="70" width="12" height="12" rx="2" fill="#216e39" stroke="#1b1f23" stroke-width="1"/>
<rect x="14" y="84" width="12" height="12" rx="2" fill="#40c463" stroke="#1b1f23" stroke-width="1"/>
<rect x="28" y="84" width="12" height="12" rx="2" fill="#216e39" stroke="#1b1f23" stroke-width="1"/>
<rect x="98" y="28" width="12" height="12" rx="2" fill="#9be9a8" stroke="#1b1f23" stroke-width="1"/>
<rect x="112" y="28" width="12" height="12" rx="2" fill="#30a14e" stroke="#1b1f23" stroke-width="1"/>
<rect x="126" y="28" width="12" height="12" rx="2" fill="#30a14e" stroke="#1b1f23" stroke-width="1"/>
<rect x="140" y="42" width="12" height="12" rx="2" fill="#30a14e" stroke="#1b1f23" stroke-width="1"/>
<rect x="98" y="56" width="12" height="12" rx="2" fill="#9be9a8" stroke="#1b1f23" stroke-width="1"/>
<rect x="112" y="56" width="12" height="12" rx="2" fill="#216e39" stroke="#1b1f23" stroke-width="1"/>
<rect x="126" y="56" width="12" height="12" rx="2" fill="#9be9a8" stroke="#1b1f23" stroke-width="1"/>
<rect x="140" y="56" width="12" height="12" rx="2" fill="#216e39" stroke="#1b1f23" stroke-width="1"/>
<rect x="84" y="70" width="12" height="12" rx="2" fill="#9be9a8" stroke="#1b1f23" stroke-width="1"/>
<rect x="140" y="70" width="12" height="12" rx="2" fill="#30a14e" stroke="#1b1f23" stroke-width="1"/>
<rect x="98" y="84" width="12" height="12" rx="2" fill="#30a14e" stroke="#1b1f23" stroke-width="1"/>
<rect x="112" y="84" width="12" height="12" rx="2" fill="#40c463" stroke="#1b1f23" stroke-width="1"/>
<rect x="126" y="84" width="12" height="12" rx="2" fill="#9be9a8" stroke="#1b1f23" stroke-width="1"/>
<rect x="140" y="84" width="12" height="12" rx="2" fill="#9be9a8" stroke="#1b1f23" stroke-width="1"/>
<rect x="168" y="28" width="12" height="12" rx="2" fill="#30a14e" stroke="#1b1f23" stroke-width="1"/>
<rect x="224" y="28" width="12" height="12" rx="2" fill="#40c463" stroke="#1b1f23" stroke-width="1"/>
<rect x="168" y="42" width="12" height="12" rx="2" fill="#30a14e" stroke="#1b1f23" stroke-width="1"/>
<rect x="224" y="42" width="12" height="12" rx="2" fill="#30a14e" stroke="#1b1f23" stroke-width="1"/>
<rect x="168" y="56" width="12" height="12" rx="2" fill="#40c463" stroke="#1b1f23" stroke-width="1"/>
<rect x="224" y="56" width="12" height="12" rx="2" fill="#30a14e" stroke="#1b1f23" stroke-width="1"/>
<rect x="182" y="70" width="12" height="12" rx="2" fill="#9be9a8" stroke="#1b1f23" stroke-width="1"/>
<rect x="210" y="70" width="12" height="12" rx="2" fill="#40c463" stroke="#1b1f23" stroke-width="1"/>
<rect x="196" y="84" width="12" height="12" rx="2" fill="#40c463" stroke="#1b1f23" stroke-width="1"/>
<rect x="266" y="28" width="12" height="12" rx="2" fill="#30a14e" stroke="#1b1f23" stroke-width="1"/>
<rect x="280" y="28" width="12" height="12" rx="2" fill="#9be9a8" stroke="#1b1f23" stroke-width="1"/>
<rect x="294" y="28" width="12" height="12" rx="2" fill="#40c463" stroke="#1b1f23" stroke-width="1"/>
<rect x="308" y="42" width="12" height="12" rx="2" fill="#30a14e" stroke="#1b1f23" stroke-width="1"/>
<rect x="266" y="56" width="12" height="12" rx="2" fill="#40c463" stroke="#1b1f23" stroke-width="1"/>
<rect x="280" y="56" width="12" height="12" rx="2" fill="#216e39" stroke="#1b1f23" stroke-width="1"/>
<rect x="294" y="56" width="12" height="12" rx="2" fill="#216e39" stroke="#1b1f23" stroke-width="1"/>
<rect x="308" y="56" width="12" height="12" rx="2" fill="#216e39" stroke="#1b1f23" stroke-width="1"/>
<rect x="252" y="70" width="12" height="12" rx="2" fill="#40c463" stroke="#1b1f23" stroke-width="1"/>
<rect x="308" y="70" width="12" height="12" rx="2" fill="#30a14e" stroke="#1b1f23" stroke-width="1"/>
<rect x="266" y="84" width="12" height="12" rx="2" fill="#40c463" stroke="#1b1f23" stroke-width="1"/>
<rect x="280" y="84" width="12" height="12" rx="2" fill="#40c463" stroke="#1b1f23" stroke-width="1"/>
<rect x="294" y="84" width="12" height="12" rx="2" fill="#30a14e" stroke="#1b1f23" stroke-width="1"/>
<rect x="308" y="84" width="12" height="12" rx="2" fill="#216e39" stroke="#1b1f23" stroke-width="1"/>
<rect x="448" y="0" width="12" height="12" rx="2" fill="#216e39" stroke="#1b1f23" stroke-width="1"/>
<rect x="462" y="0" width="12" height="12" rx="2" fill="#9be9a8" stroke="#1b1f23" stroke-width="1"/>
<rect x="476" y="0" width="12" height="12" rx="2" fill="#216e39" stroke="#1b1f23" stroke-width="1"/>
<rect x="490" y="0" width="12" height="12" rx="2" fill="#216e39" stroke="#1b1f23" stroke-width="1"/>
<rect x="448" y="14" width="12" height="12" rx="2" fill="#216e39" stroke="#1b1f23" stroke-width="1"/>
<rect x="504" y="14" width="12" height="12" rx="2" fill="#30a14e" stroke="#1b1f23" stroke-width="1"/>
<rect x="448" y="28" width="12" height="12" rx="2" fill="#9be9a8" stroke="#1b1f23" stroke-width="1"/>
<rect x="504" y="28" width="12" height="12" rx="2" fill="#9be9a8" stroke="#1b1f23" stroke-width="1"/>
<rect x="448" y="42" width="12" height="12" rx="2" fill="#30a14e" stroke="#1b1f23" stroke-width="1"/>
<rect x="462" y="42" width="12" height="12" rx="2" fill="#30a14e" stroke="#1b1f23" stroke-width="1"/>
<rect x="476" y="42" width="12" height="12" rx="2" fill="#9be9a8" stroke="#1b1f23" stroke-width="1"/>
<rect x="490" y="42" width="12" height="12" rx="2" fill="#30a14e" stroke="#1b1f23" stroke-width="1"/>
<rect x="448" y="56" width="12" height="12" rx="2" fill="#216e39" stroke="#1b1f23" stroke-width="1"/>
<rect x="448" y="70" width="12" height="12" rx="2" fill="#40c463" stroke="#1b1f23" stroke-width="1"/>
<rect x="448" y="84" width="12" height="12" rx="2" fill="#216e39" stroke="#1b1f23" stroke-width="1"/>
<rect x="532" y="28" width="12" height="12" rx="2" fill="#40c463" stroke="#1b1f23" stroke-width="1"/>
<rect x="574" y="28" width="12" height="12" rx="2" fill="#9be9a8" stroke="#1b1f23" stroke-width="1"/>
<rect x="532" y="42" width="12" height="12" rx="2" fill="#30a14e" stroke="#1b1f23" stroke-width="1"/>
<rect x="574" y="42" width="12" height="12" rx="2" fill="#216e39" stroke="#1b1f23" stroke-width="1"/>
<rect x="532" y="56" width="12" height="12" rx="2" fill="#9be9a8" stroke="#1b1f23" stroke-width="1"/>
<rect x="574" y="56" width="12" height="12" rx="2" fill="#9be9a8" stroke="#1b1f23" stroke-width="1"/>
<rect x="546" y="70" width="12" height="12" rx="2" fill="#30a14e" stroke="#1b1f23" stroke-width="1"/>
<rect x="560" y="70" width="12" height="12" rx="2" fill="#30a14e" stroke="#1b1f23" stroke-width="1"/>
<rect x="574" y="70" width="12" height="12" rx="2" fill="#40c463" stroke="#1b1f23" stroke-width="1"/>
<rect x="574" y="84" width="12" height="12" rx="2" fill="#9be9a8" stroke="#1b1f23" stroke-width="1"/>
<rect x="574" y="98" width="12" height="12" rx="2" fill="#40c463" stroke="#1b1f23" stroke-width="1"/>
<rect x="560" y="112" width="12" height="12" rx="2" fill="#9be9a8" stroke="#1b1f23" stroke-width="1"/>
<rect x="616" y="14" width="12" height="12" rx="2" fill="#40c463" stroke="#1b1f23" stroke-width="1"/>
<rect x="602" y="28" width="12" height="12" rx="2" fill="#30a14e" stroke="#1b1f23" stroke-width="1"/>
<rect x="616" y="28" width="12" height="12" rx="2" fill="#216e39" stroke="#1b1f23" stroke-width="1"/>
<rect x="630" y="28" width="12" height="12" rx="2" fill="#40c463" stroke="#1b1f23" stroke-width="1"/>
<rect x="616" y="42" width="12" height="12" rx="2" fill="#40c463" stroke="#1b1f23" stroke-width="1"/>
<rect x="616" y="56" width="12" height="12" rx="2" fill="#30a14e" stroke="#1b1f23" stroke-width="1"/>
<rect x="616" y="70" width="12" height="12" rx="2" fill="#216e39" stroke="#1b1f23" stroke-width="1"/>
<rect x="616" y="84" width="12" height="12" rx="2" fill="#30a14e" stroke="#1b1f23" stroke-width="1"/>
<rect x="672" y="0" width="12" height="12" rx="2" fill="#40c463" stroke="#1b1f23" stroke-width="1"/>
<rect x="672" y="14" width="12" height="12" rx="2" fill="#9be9a8" stroke="#1b1f23" stroke-width="1"/>
<rect x="672" y="28" width="12" height="12" rx="2" fill="#9be9a8" stroke="#1b1f23" stroke-width="1"/>
<rect x="672" y="42" width="12" height="12" rx="2" fill="#9be9a8" stroke="#1b1f23" stroke-width="1"/>
<rect x="686" y="42" width="12" height="12" rx="2" fill="#40c463" stroke="#1b1f23" stroke-width="1"/>
<rect x="700" y="42" width="12" height="12" rx="2" fill="#9be9a8" stroke="#1b1f23" stroke-width="1"/>
<rect x="672" y="56" width="12" height="12" rx="2" fill="#9be9a8" stroke="#1b1f23" stroke-width="1"/>
<rect x="714" y="56" width="12" height="12" rx="2" fill="#30a14e" stroke="#1b1f23" stroke-width="1"/>
<rect x="672" y="70" width="12" height="12" rx="2" fill="#9be9a8" stroke="#1b1f23" stroke-width="1"/>
<rect x="714" y="70" width="12" height="12" rx="2" fill="#40c463" stroke="#1b1f23" stroke-width="1"/>
<rect x="672" y="84" width="12" height="12" rx="2" fill="#30a14e" stroke="#1b1f23" stroke-width="1"/>
<rect x="714" y="84" width="12" height="12" rx="2" fill="#216e39" stroke="#1b1f23" stroke-width="1"/>
<rect x="756" y="28" width="12" height="12" rx="2" fill="#216e39" stroke="#1b1f23" stroke-width="1"/>
<rect x="770" y="28" width="12" height="12" rx="2" fill="#30a14e" stroke="#1b1f23" stroke-width="1"/>
<rect x="784" y="28" width="12" height="12" rx="2" fill="#216e39" stroke="#1b1f23" stroke-width="1"/>
<rect x="742" y="42" width="12" height="12" rx="2" fill="#216e39" stroke="#1b1f23" stroke-width="1"/>
<rect x="798" y="42" width="12" height="12" rx="2" fill="#216e39" stroke="#1b1f23" stroke-width="1"/>
<rect x="742" y="56" width="12" height="12" rx="2" fill="#9be9a8" stroke="#1b1f23" stroke-width="1"/>
<rect x="798" y="56" width="12" height="12" rx="2" fill="#9be9a8" stroke="#1b1f23" stroke-width="1"/>
<rect x="742" y="70" width="12" height="12" rx="2" fill="#9be9a8" stroke="#1b1f23" stroke-width="1"/>
<rect x="798" y="70" width="12" height="12" rx="2" fill="#216e39" stroke="#1b1f23" stroke-width="1"/>
<rect x="756" y="84" width="12" height="12" rx="2" fill="#30a14e" stroke="#1b1f23" stroke-width="1"/>
<rect x="770" y="84" width="12" height="12" rx="2" fill="#9be9a8" stroke="#1b1f23" stroke-width="1"/>
<rect x="784" y="84" width="12" height="12" rx="2" fill="#40c463" stroke="#1b1f23" stroke-width="1"/>
<rect x="826" y="28" width="12" height="12" rx="2" fill="#216e39" stroke="#1b1f23" stroke-width="1"/>
<rect x="854" y="28" width="12" height="12" rx="2" fill="#9be9a8" stroke="#1b1f23" stroke-width="1"/>
<rect x="868" y="28" width="12" height="12" rx="2" fill="#9be9a8" stroke="#1b1f23" stroke-width="1"/>
<rect x="826" y="42" width="12" height="12" rx="2" fill="#9be9a8" stroke="#1b1f23" stroke-width="1"/>
<rect x="840" y="42" width="12" height="12" rx="2" fill="#9be9a8" stroke="#1b1f23" stroke-width="1"/>
<rect x="882" y="42" width="12" height="12" rx="2" fill="#40c463" stroke="#1b1f23" stroke-width="1"/>
<rect x="826" y="56" width="12" height="12" rx="2" fill="#40c463" stroke="#1b1f23" stroke-width="1"/>
<rect x="882" y="56" width="12" height="12" rx="2" fill="#216e39" stroke="#1b1f23" stroke-width="1"/>
<rect x="826" y="70" width="12" height="12" rx="2" fill="#216e39" stroke="#1b1f23" stroke-width="1"/>
<rect x="882" y="70" width="12" height="12" rx="2" fill="#216e39" stroke="#1b1f23" stroke-width="1"/>
<rect x="826" y="84" width="12" height="12" rx="2" fill="#40c463" stroke="#1b1f23" stroke-width="1"/>
<rect x="882" y="84" width="12" height="12" rx="2" fill="#216e39" stroke="#1b1f23" stroke-width="1"/>
</g>
</svg>
