<svg width="460" height="140" viewBox="0 0 460 140" xmlns="http://www.w3.org/2000/svg">
<g>
<!-- J -->
<rect x="40" y="0" width="18" height="18" rx="3" fill="#000000"/>
<rect x="60" y="0" width="18" height="18" rx="3" fill="#000000"/>
<rect x="80" y="0" width="18" height="18" rx="3" fill="#808080"/>
<rect x="60" y="20" width="18" height="18" rx="3" fill="#000000"/>
<rect x="60" y="40" width="18" height="18" rx="3" fill="#808080"/>
<rect x="60" y="60" width="18" height="18" rx="3" fill="#000000"/>
<rect x="0" y="80" width="18" height="18" rx="3" fill="#808080"/>
<rect x="60" y="80" width="18" height="18" rx="3" fill="#000000"/>
<rect x="0" y="100" width="18" height="18" rx="3" fill="#000000"/>
<rect x="60" y="100" width="18" height="18" rx="3" fill="#808080"/>
<rect x="20" y="120" width="18" height="18" rx="3" fill="#000000"/>
<rect x="40" y="120" width="18" height="18" rx="3" fill="#000000"/>

<!-- a1 -->
<rect x="140" y="40" width="18" height="18" rx="3" fill="#808080"/>
<rect x="160" y="40" width="18" height="18" rx="3" fill="#000000"/>
<rect x="180" y="40" width="18" height="18" rx="3" fill="#808080"/>
<rect x="200" y="60" width="18" height="18" rx="3" fill="#000000"/>
<rect x="140" y="80" width="18" height="18" rx="3" fill="#000000"/>
<rect x="160" y="80" width="18" height="18" rx="3" fill="#808080"/>
<rect x="180" y="80" width="18" height="18" rx="3" fill="#000000"/>
<rect x="200" y="80" width="18" height="18" rx="3" fill="#808080"/>
<rect x="120" y="100" width="18" height="18" rx="3" fill="#000000"/>
<rect x="200" y="100" width="18" height="18" rx="3" fill="#000000"/>
<rect x="140" y="120" width="18" height="18" rx="3" fill="#808080"/>
<rect x="160" y="120" width="18" height="18" rx="3" fill="#000000"/>
<rect x="180" y="120" width="18" height="18" rx="3" fill="#808080"/>
<rect x="200" y="120" width="18" height="18" rx="3" fill="#000000"/>

<!-- v -->
<rect x="240" y="40" width="18" height="18" rx="3" fill="#000000"/>
<rect x="320" y="40" width="18" height="18" rx="3" fill="#808080"/>
<rect x="240" y="60" width="18" height="18" rx="3" fill="#808080"/>
<rect x="320" y="60" width="18" height="18" rx="3" fill="#000000"/>
<rect x="240" y="80" width="18" height="18" rx="3" fill="#000000"/>
<rect x="320" y="80" width="18" height="18" rx="3" fill="#808080"/>
<rect x="260" y="100" width="18" height="18" rx="3" fill="#000000"/>
<rect x="300" y="100" width="18" height="18" rx="3" fill="#000000"/>
<rect x="280" y="120" width="18" height="18" rx="3" fill="#808080"/>

<!-- a2 -->
<rect x="380" y="40" width="18" height="18" rx="3" fill="#000000"/>
<rect x="400" y="40" width="18" height="18" rx="3" fill="#808080"/>
<rect x="420" y="40" width="18" height="18" rx="3" fill="#000000"/>
<rect x="440" y="60" width="18" height="18" rx="3" fill="#808080"/>
<rect x="380" y="80" width="18" height="18" rx="3" fill="#808080"/>
<rect x="400" y="80" width="18" height="18" rx="3" fill="#000000"/>
<rect x="420" y="80" width="18" height="18" rx="3" fill="#808080"/>
<rect x="440" y="80" width="18" height="18" rx="3" fill="#000000"/>
<rect x="360" y="100" width="18" height="18" rx="3" fill="#000000"/>
<rect x="440" y="100" width="18" height="18" rx="3" fill="#000000"/>
<rect x="380" y="120" width="18" height="18" rx="3" fill="#000000"/>
<rect x="400" y="120" width="18" height="18" rx="3" fill="#808080"/>
<rect x="420" y="120" width="18" height="18" rx="3" fill="#000000"/>
<rect x="440" y="120" width="18" height="18" rx="3" fill="#808080"/>
</g>
</svg>
