<svg width="1288" height="188" viewBox="0 0 1288 188" xmlns="http://www.w3.org/2000/svg">
<g>
<rect x="44" y="4" width="16" height="16" rx="2" ry="2" fill="#9be9a8" stroke="#000000" stroke-width="2"/>
<rect x="64" y="4" width="16" height="16" rx="2" ry="2" fill="#9be9a8" stroke="#000000" stroke-width="2"/>
<rect x="84" y="4" width="16" height="16" rx="2" ry="2" fill="#30a14e" stroke="#000000" stroke-width="2"/>
<rect x="64" y="24" width="16" height="16" rx="2" ry="2" fill="#40c463" stroke="#000000" stroke-width="2"/>
<rect x="64" y="44" width="16" height="16" rx="2" ry="2" fill="#40c463" stroke="#000000" stroke-width="2"/>
<rect x="64" y="64" width="16" height="16" rx="2" ry="2" fill="#40c463" stroke="#000000" stroke-width="2"/>
<rect x="64" y="84" width="16" height="16" rx="2" ry="2" fill="#9be9a8" stroke="#000000" stroke-width="2"/>
<rect x="4" y="104" width="16" height="16" rx="2" ry="2" fill="#9be9a8" stroke="#000000" stroke-width="2"/>
<rect x="64" y="104" width="16" height="16" rx="2" ry="2" fill="#216e39" stroke="#000000" stroke-width="2"/>
<rect x="24" y="124" width="16" height="16" rx="2" ry="2" fill="#9be9a8" stroke="#000000" stroke-width="2"/>
<rect x="44" y="124" width="16" height="16" rx="2" ry="2" fill="#9be9a8" stroke="#000000" stroke-width="2"/>
<rect x="144" y="44" width="16" height="16" rx="2" ry="2" fill="#9be9a8" stroke="#000000" stroke-width="2"/>
<rect x="164" y="44" width="16" height="16" rx="2" ry="2" fill="#40c463" stroke="#000000" stroke-width="2"/>
<rect x="184" y="44" width="16" height="16" rx="2" ry="2" fill="#40c463" stroke="#000000" stroke-width="2"/>
<rect x="204" y="64" width="16" height="16" rx="2" ry="2" fill="#9be9a8" stroke="#000000" stroke-width="2"/>
<rect x="144" y="84" width="16" height="16" rx="2" ry="2" fill="#40c463" stroke="#000000" stroke-width="2"/>
<rect x="164" y="84" width="16" height="16" rx="2" ry="2" fill="#216e39" stroke="#000000" stroke-width="2"/>
<rect x="184" y="84" width="16" height="16" rx="2" ry="2" fill="#40c463" stroke="#000000" stroke-width="2"/>
<rect x="204" y="84" width="16" height="16" rx="2" ry="2" fill="#216e39" stroke="#000000" stroke-width="2"/>
<rect x="124" y="104" width="16" height="16" rx="2" ry="2" fill="#30a14e" stroke="#000000" stroke-width="2"/>
<rect x="204" y="104" width="16" height="16" rx="2" ry="2" fill="#9be9a8" stroke="#000000" stroke-width="2"/>
<rect x="144" y="124" width="16" height="16" rx="2" ry="2" fill="#40c463" stroke="#000000" stroke-width="2"/>
<rect x="164" y="124" width="16" height="16" rx="2" ry="2" fill="#216e39" stroke="#000000" stroke-width="2"/>
<rect x="184" y="124" width="16" height="16" rx="2" ry="2" fill="#30a14e" stroke="#000000" stroke-width="2"/>
<rect x="204" y="124" width="16" height="16" rx="2" ry="2" fill="#30a14e" stroke="#000000" stroke-width="2"/>
<rect x="244" y="44" width="16" height="16" rx="2" ry="2" fill="#40c463" stroke="#000000" stroke-width="2"/>
<rect x="324" y="44" width="16" height="16" rx="2" ry="2" fill="#40c463" stroke="#000000" stroke-width="2"/>
<rect x="244" y="64" width="16" height="16" rx="2" ry="2" fill="#30a14e" stroke="#000000" stroke-width="2"/>
<rect x="324" y="64" width="16" height="16" rx="2" ry="2" fill="#9be9a8" stroke="#000000" stroke-width="2"/>
<rect x="244" y="84" width="16" height="16" rx="2" ry="2" fill="#9be9a8" stroke="#000000" stroke-width="2"/>
<rect x="324" y="84" width="16" height="16" rx="2" ry="2" fill="#216e39" stroke="#000000" stroke-width="2"/>
<rect x="264" y="104" width="16" height="16" rx="2" ry="2" fill="#9be9a8" stroke="#000000" stroke-width="2"/>
<rect x="304" y="104" width="16" height="16" rx="2" ry="2" fill="#30a14e" stroke="#000000" stroke-width="2"/>
<rect x="284" y="124" width="16" height="16" rx="2" ry="2" fill="#30a14e" stroke="#000000" stroke-width="2"/>
<rect x="384" y="44" width="16" height="16" rx="2" ry="2" fill="#30a14e" stroke="#000000" stroke-width="2"/>
<rect x="404" y="44" width="16" height="16" rx="2" ry="2" fill="#9be9a8" stroke="#000000" stroke-width="2"/>
<rect x="424" y="44" width="16" height="16" rx="2" ry="2" fill="#216e39" stroke="#000000" stroke-width="2"/>
<rect x="444" y="64" width="16" height="16" rx="2" ry="2" fill="#9be9a8" stroke="#000000" stroke-width="2"/>
<rect x="384" y="84" width="16" height="16" rx="2" ry="2" fill="#216e39" stroke="#000000" stroke-width="2"/>
<rect x="404" y="84" width="16" height="16" rx="2" ry="2" fill="#9be9a8" stroke="#000000" stroke-width="2"/>
<rect x="424" y="84" width="16" height="16" rx="2" ry="2" fill="#30a14e" stroke="#000000" stroke-width="2"/>
<rect x="444" y="84" width="16" height="16" rx="2" ry="2" fill="#30a14e" stroke="#000000" stroke-width="2"/>
<rect x="364" y="104" width="16" height="16" rx="2" ry="2" fill="#40c463" stroke="#000000" stroke-width="2"/>
<rect x="444" y="104" width="16" height="16" rx="2" ry="2" fill="#9be9a8" stroke="#000000" stroke-width="2"/>
<rect x="384" y="124" width="16" height="16" rx="2" ry="2" fill="#9be9a8" stroke="#000000" stroke-width="2"/>
<rect x="404" y="124" width="16" height="16" rx="2" ry="2" fill="#40c463" stroke="#000000" stroke-width="2"/>
<rect x="424" y="124" width="16" height="16" rx="2" ry="2" fill="#30a14e" stroke="#000000" stroke-width="2"/>
<rect x="444" y="124" width="16" height="16" rx="2" ry="2" fill="#9be9a8" stroke="#000000" stroke-width="2"/>
<rect x="644" y="4" width="16" height="16" rx="2" ry="2" fill="#40c463" stroke="#000000" stroke-width="2"/>
<rect x="664" y="4" width="16" height="16" rx="2" ry="2" fill="#9be9a8" stroke="#000000" stroke-width="2"/>
<rect x="684" y="4" width="16" height="16" rx="2" ry="2" fill="#216e39" stroke="#000000" stroke-width="2"/>
<rect x="704" y="4" width="16" height="16" rx="2" ry="2" fill="#30a14e" stroke="#000000" stroke-width="2"/>
<rect x="644" y="24" width="16" height="16" rx="2" ry="2" fill="#216e39" stroke="#000000" stroke-width="2"/>
<rect x="724" y="24" width="16" height="16" rx="2" ry="2" fill="#30a14e" stroke="#000000" stroke-width="2"/>
<rect x="644" y="44" width="16" height="16" rx="2" ry="2" fill="#40c463" stroke="#000000" stroke-width="2"/>
<rect x="724" y="44" width="16" height="16" rx="2" ry="2" fill="#30a14e" stroke="#000000" stroke-width="2"/>
<rect x="644" y="64" width="16" height="16" rx="2" ry="2" fill="#30a14e" stroke="#000000" stroke-width="2"/>
<rect x="664" y="64" width="16" height="16" rx="2" ry="2" fill="#40c463" stroke="#000000" stroke-width="2"/>
<rect x="684" y="64" width="16" height="16" rx="2" ry="2" fill="#30a14e" stroke="#000000" stroke-width="2"/>
<rect x="704" y="64" width="16" height="16" rx="2" ry="2" fill="#9be9a8" stroke="#000000" stroke-width="2"/>
<rect x="644" y="84" width="16" height="16" rx="2" ry="2" fill="#40c463" stroke="#000000" stroke-width="2"/>
<rect x="644" y="104" width="16" height="16" rx="2" ry="2" fill="#40c463" stroke="#000000" stroke-width="2"/>
<rect x="644" y="124" width="16" height="16" rx="2" ry="2" fill="#40c463" stroke="#000000" stroke-width="2"/>
<rect x="764" y="44" width="16" height="16" rx="2" ry="2" fill="#216e39" stroke="#000000" stroke-width="2"/>
<rect x="824" y="44" width="16" height="16" rx="2" ry="2" fill="#216e39" stroke="#000000" stroke-width="2"/>
<rect x="764" y="64" width="16" height="16" rx="2" ry="2" fill="#30a14e" stroke="#000000" stroke-width="2"/>
<rect x="824" y="64" width="16" height="16" rx="2" ry="2" fill="#40c463" stroke="#000000" stroke-width="2"/>
<rect x="764" y="84" width="16" height="16" rx="2" ry="2" fill="#30a14e" stroke="#000000" stroke-width="2"/>
<rect x="824" y="84" width="16" height="16" rx="2" ry="2" fill="#9be9a8" stroke="#000000" stroke-width="2"/>
<rect x="784" y="104" width="16" height="16" rx="2" ry="2" fill="#40c463" stroke="#000000" stroke-width="2"/>
<rect x="804" y="104" width="16" height="16" rx="2" ry="2" fill="#9be9a8" stroke="#000000" stroke-width="2"/>
<rect x="824" y="104" width="16" height="16" rx="2" ry="2" fill="#30a14e" stroke="#000000" stroke-width="2"/>
<rect x="824" y="124" width="16" height="16" rx="2" ry="2" fill="#216e39" stroke="#000000" stroke-width="2"/>
<rect x="824" y="144" width="16" height="16" rx="2" ry="2" fill="#30a14e" stroke="#000000" stroke-width="2"/>
<rect x="804" y="164" width="16" height="16" rx="2" ry="2" fill="#9be9a8" stroke="#000000" stroke-width="2"/>
<rect x="884" y="24" width="16" height="16" rx="2" ry="2" fill="#40c463" stroke="#000000" stroke-width="2"/>
<rect x="864" y="44" width="16" height="16" rx="2" ry="2" fill="#30a14e" stroke="#000000" stroke-width="2"/>
<rect x="884" y="44" width="16" height="16" rx="2" ry="2" fill="#40c463" stroke="#000000" stroke-width="2"/>
<rect x="904" y="44" width="16" height="16" rx="2" ry="2" fill="#216e39" stroke="#000000" stroke-width="2"/>
<rect x="884" y="64" width="16" height="16" rx="2" ry="2" fill="#216e39" stroke="#000000" stroke-width="2"/>
<rect x="884" y="84" width="16" height="16" rx="2" ry="2" fill="#216e39" stroke="#000000" stroke-width="2"/>
<rect x="884" y="104" width="16" height="16" rx="2" ry="2" fill="#40c463" stroke="#000000" stroke-width="2"/>
<rect x="884" y="124" width="16" height="16" rx="2" ry="2" fill="#30a14e" stroke="#000000" stroke-width="2"/>
<rect x="964" y="4" width="16" height="16" rx="2" ry="2" fill="#40c463" stroke="#000000" stroke-width="2"/>
<rect x="964" y="24" width="16" height="16" rx="2" ry="2" fill="#40c463" stroke="#000000" stroke-width="2"/>
<rect x="964" y="44" width="16" height="16" rx="2" ry="2" fill="#30a14e" stroke="#000000" stroke-width="2"/>
<rect x="964" y="64" width="16" height="16" rx="2" ry="2" fill="#216e39" stroke="#000000" stroke-width="2"/>
<rect x="984" y="64" width="16" height="16" rx="2" ry="2" fill="#216e39" stroke="#000000" stroke-width="2"/>
<rect x="1004" y="64" width="16" height="16" rx="2" ry="2" fill="#30a14e" stroke="#000000" stroke-width="2"/>
<rect x="964" y="84" width="16" height="16" rx="2" ry="2" fill="#40c463" stroke="#000000" stroke-width="2"/>
<rect x="1024" y="84" width="16" height="16" rx="2" ry="2" fill="#40c463" stroke="#000000" stroke-width="2"/>
<rect x="964" y="104" width="16" height="16" rx="2" ry="2" fill="#216e39" stroke="#000000" stroke-width="2"/>
<rect x="1024" y="104" width="16" height="16" rx="2" ry="2" fill="#9be9a8" stroke="#000000" stroke-width="2"/>
<rect x="964" y="124" width="16" height="16" rx="2" ry="2" fill="#9be9a8" stroke="#000000" stroke-width="2"/>
<rect x="1024" y="124" width="16" height="16" rx="2" ry="2" fill="#9be9a8" stroke="#000000" stroke-width="2"/>
<rect x="1084" y="44" width="16" height="16" rx="2" ry="2" fill="#40c463" stroke="#000000" stroke-width="2"/>
<rect x="1104" y="44" width="16" height="16" rx="2" ry="2" fill="#40c463" stroke="#000000" stroke-width="2"/>
<rect x="1124" y="44" width="16" height="16" rx="2" ry="2" fill="#216e39" stroke="#000000" stroke-width="2"/>
<rect x="1064" y="64" width="16" height="16" rx="2" ry="2" fill="#9be9a8" stroke="#000000" stroke-width="2"/>
<rect x="1144" y="64" width="16" height="16" rx="2" ry="2" fill="#216e39" stroke="#000000" stroke-width="2"/>
<rect x="1064" y="84" width="16" height="16" rx="2" ry="2" fill="#216e39" stroke="#000000" stroke-width="2"/>
<rect x="1144" y="84" width="16" height="16" rx="2" ry="2" fill="#216e39" stroke="#000000" stroke-width="2"/>
<rect x="1064" y="104" width="16" height="16" rx="2" ry="2" fill="#30a14e" stroke="#000000" stroke-width="2"/>
<rect x="1144" y="104" width="16" height="16" rx="2" ry="2" fill="#9be9a8" stroke="#000000" stroke-width="2"/>
<rect x="1084" y="124" width="16" height="16" rx="2" ry="2" fill="#9be9a8" stroke="#000000" stroke-width="2"/>
<rect x="1104" y="124" width="16" height="16" rx="2" ry="2" fill="#30a14e" stroke="#000000" stroke-width="2"/>
<rect x="1124" y="124" width="16" height="16" rx="2" ry="2" fill="#30a14e" stroke="#000000" stroke-width="2"/>
<rect x="1184" y="44" width="16" height="16" rx="2" ry="2" fill="#9be9a8" stroke="#000000" stroke-width="2"/>
<rect x="1224" y="44" width="16" height="16" rx="2" ry="2" fill="#30a14e" stroke="#000000" stroke-width="2"/>
<rect x="1244" y="44" width="16" height="16" rx="2" ry="2" fill="#216e39" stroke="#000000" stroke-width="2"/>
<rect x="1184" y="64" width="16" height="16" rx="2" ry="2" fill="#40c463" stroke="#000000" stroke-width="2"/>
<rect x="1204" y="64" width="16" height="16" rx="2" ry="2" fill="#216e39" stroke="#000000" stroke-width="2"/>
<rect x="1264" y="64" width="16" height="16" rx="2" ry="2" fill="#9be9a8" stroke="#000000" stroke-width="2"/>
<rect x="1184" y="84" width="16" height="16" rx="2" ry="2" fill="#30a14e" stroke="#000000" stroke-width="2"/>
<rect x="1264" y="84" width="16" height="16" rx="2" ry="2" fill="#40c463" stroke="#000000" stroke-width="2"/>
<rect x="1184" y="104" width="16" height="16" rx="2" ry="2" fill="#9be9a8" stroke="#000000" stroke-width="2"/>
<rect x="1264" y="104" width="16" height="16" rx="2" ry="2" fill="#30a14e" stroke="#000000" stroke-width="2"/>
<rect x="1184" y="124" width="16" height="16" rx="2" ry="2" fill="#40c463" stroke="#000000" stroke-width="2"/>
<rect x="1264" y="124" width="16" height="16" rx="2" ry="2" fill="#40c463" stroke="#000000" stroke-width="2"/>
</g>
</svg>
