<svg width="902" height="132" viewBox="0 0 902 132" xmlns="http://www.w3.org/2000/svg">
<g>
<rect x="31" y="3" width="11" height="11" rx="2" ry="2" fill="#9be9a8" stroke="#000000" stroke-width="2"/>
<rect x="45" y="3" width="11" height="11" rx="2" ry="2" fill="#9be9a8" stroke="#000000" stroke-width="2"/>
<rect x="59" y="3" width="11" height="11" rx="2" ry="2" fill="#30a14e" stroke="#000000" stroke-width="2"/>
<rect x="45" y="17" width="11" height="11" rx="2" ry="2" fill="#40c463" stroke="#000000" stroke-width="2"/>
<rect x="45" y="31" width="11" height="11" rx="2" ry="2" fill="#40c463" stroke="#000000" stroke-width="2"/>
<rect x="45" y="45" width="11" height="11" rx="2" ry="2" fill="#40c463" stroke="#000000" stroke-width="2"/>
<rect x="45" y="59" width="11" height="11" rx="2" ry="2" fill="#9be9a8" stroke="#000000" stroke-width="2"/>
<rect x="3" y="73" width="11" height="11" rx="2" ry="2" fill="#9be9a8" stroke="#000000" stroke-width="2"/>
<rect x="45" y="73" width="11" height="11" rx="2" ry="2" fill="#216e39" stroke="#000000" stroke-width="2"/>
<rect x="17" y="87" width="11" height="11" rx="2" ry="2" fill="#9be9a8" stroke="#000000" stroke-width="2"/>
<rect x="31" y="87" width="11" height="11" rx="2" ry="2" fill="#9be9a8" stroke="#000000" stroke-width="2"/>
<rect x="101" y="31" width="11" height="11" rx="2" ry="2" fill="#9be9a8" stroke="#000000" stroke-width="2"/>
<rect x="115" y="31" width="11" height="11" rx="2" ry="2" fill="#40c463" stroke="#000000" stroke-width="2"/>
<rect x="129" y="31" width="11" height="11" rx="2" ry="2" fill="#40c463" stroke="#000000" stroke-width="2"/>
<rect x="143" y="45" width="11" height="11" rx="2" ry="2" fill="#9be9a8" stroke="#000000" stroke-width="2"/>
<rect x="101" y="59" width="11" height="11" rx="2" ry="2" fill="#40c463" stroke="#000000" stroke-width="2"/>
<rect x="115" y="59" width="11" height="11" rx="2" ry="2" fill="#216e39" stroke="#000000" stroke-width="2"/>
<rect x="129" y="59" width="11" height="11" rx="2" ry="2" fill="#40c463" stroke="#000000" stroke-width="2"/>
<rect x="143" y="59" width="11" height="11" rx="2" ry="2" fill="#216e39" stroke="#000000" stroke-width="2"/>
<rect x="87" y="73" width="11" height="11" rx="2" ry="2" fill="#30a14e" stroke="#000000" stroke-width="2"/>
<rect x="143" y="73" width="11" height="11" rx="2" ry="2" fill="#9be9a8" stroke="#000000" stroke-width="2"/>
<rect x="101" y="87" width="11" height="11" rx="2" ry="2" fill="#40c463" stroke="#000000" stroke-width="2"/>
<rect x="115" y="87" width="11" height="11" rx="2" ry="2" fill="#216e39" stroke="#000000" stroke-width="2"/>
<rect x="129" y="87" width="11" height="11" rx="2" ry="2" fill="#30a14e" stroke="#000000" stroke-width="2"/>
<rect x="143" y="87" width="11" height="11" rx="2" ry="2" fill="#30a14e" stroke="#000000" stroke-width="2"/>
<rect x="171" y="31" width="11" height="11" rx="2" ry="2" fill="#40c463" stroke="#000000" stroke-width="2"/>
<rect x="227" y="31" width="11" height="11" rx="2" ry="2" fill="#40c463" stroke="#000000" stroke-width="2"/>
<rect x="171" y="45" width="11" height="11" rx="2" ry="2" fill="#30a14e" stroke="#000000" stroke-width="2"/>
<rect x="227" y="45" width="11" height="11" rx="2" ry="2" fill="#9be9a8" stroke="#000000" stroke-width="2"/>
<rect x="171" y="59" width="11" height="11" rx="2" ry="2" fill="#9be9a8" stroke="#000000" stroke-width="2"/>
<rect x="227" y="59" width="11" height="11" rx="2" ry="2" fill="#216e39" stroke="#000000" stroke-width="2"/>
<rect x="185" y="73" width="11" height="11" rx="2" ry="2" fill="#9be9a8" stroke="#000000" stroke-width="2"/>
<rect x="213" y="73" width="11" height="11" rx="2" ry="2" fill="#30a14e" stroke="#000000" stroke-width="2"/>
<rect x="199" y="87" width="11" height="11" rx="2" ry="2" fill="#30a14e" stroke="#000000" stroke-width="2"/>
<rect x="269" y="31" width="11" height="11" rx="2" ry="2" fill="#30a14e" stroke="#000000" stroke-width="2"/>
<rect x="283" y="31" width="11" height="11" rx="2" ry="2" fill="#9be9a8" stroke="#000000" stroke-width="2"/>
<rect x="297" y="31" width="11" height="11" rx="2" ry="2" fill="#216e39" stroke="#000000" stroke-width="2"/>
<rect x="311" y="45" width="11" height="11" rx="2" ry="2" fill="#9be9a8" stroke="#000000" stroke-width="2"/>
<rect x="269" y="59" width="11" height="11" rx="2" ry="2" fill="#216e39" stroke="#000000" stroke-width="2"/>
<rect x="283" y="59" width="11" height="11" rx="2" ry="2" fill="#9be9a8" stroke="#000000" stroke-width="2"/>
<rect x="297" y="59" width="11" height="11" rx="2" ry="2" fill="#30a14e" stroke="#000000" stroke-width="2"/>
<rect x="311" y="59" width="11" height="11" rx="2" ry="2" fill="#30a14e" stroke="#000000" stroke-width="2"/>
<rect x="255" y="73" width="11" height="11" rx="2" ry="2" fill="#40c463" stroke="#000000" stroke-width="2"/>
<rect x="311" y="73" width="11" height="11" rx="2" ry="2" fill="#9be9a8" stroke="#000000" stroke-width="2"/>
<rect x="269" y="87" width="11" height="11" rx="2" ry="2" fill="#9be9a8" stroke="#000000" stroke-width="2"/>
<rect x="283" y="87" width="11" height="11" rx="2" ry="2" fill="#40c463" stroke="#000000" stroke-width="2"/>
<rect x="297" y="87" width="11" height="11" rx="2" ry="2" fill="#30a14e" stroke="#000000" stroke-width="2"/>
<rect x="311" y="87" width="11" height="11" rx="2" ry="2" fill="#9be9a8" stroke="#000000" stroke-width="2"/>
<rect x="451" y="3" width="11" height="11" rx="2" ry="2" fill="#40c463" stroke="#000000" stroke-width="2"/>
<rect x="465" y="3" width="11" height="11" rx="2" ry="2" fill="#9be9a8" stroke="#000000" stroke-width="2"/>
<rect x="479" y="3" width="11" height="11" rx="2" ry="2" fill="#216e39" stroke="#000000" stroke-width="2"/>
<rect x="493" y="3" width="11" height="11" rx="2" ry="2" fill="#30a14e" stroke="#000000" stroke-width="2"/>
<rect x="451" y="17" width="11" height="11" rx="2" ry="2" fill="#216e39" stroke="#000000" stroke-width="2"/>
<rect x="507" y="17" width="11" height="11" rx="2" ry="2" fill="#30a14e" stroke="#000000" stroke-width="2"/>
<rect x="451" y="31" width="11" height="11" rx="2" ry="2" fill="#40c463" stroke="#000000" stroke-width="2"/>
<rect x="507" y="31" width="11" height="11" rx="2" ry="2" fill="#30a14e" stroke="#000000" stroke-width="2"/>
<rect x="451" y="45" width="11" height="11" rx="2" ry="2" fill="#30a14e" stroke="#000000" stroke-width="2"/>
<rect x="465" y="45" width="11" height="11" rx="2" ry="2" fill="#40c463" stroke="#000000" stroke-width="2"/>
<rect x="479" y="45" width="11" height="11" rx="2" ry="2" fill="#30a14e" stroke="#000000" stroke-width="2"/>
<rect x="493" y="45" width="11" height="11" rx="2" ry="2" fill="#9be9a8" stroke="#000000" stroke-width="2"/>
<rect x="451" y="59" width="11" height="11" rx="2" ry="2" fill="#40c463" stroke="#000000" stroke-width="2"/>
<rect x="451" y="73" width="11" height="11" rx="2" ry="2" fill="#40c463" stroke="#000000" stroke-width="2"/>
<rect x="451" y="87" width="11" height="11" rx="2" ry="2" fill="#40c463" stroke="#000000" stroke-width="2"/>
<rect x="535" y="31" width="11" height="11" rx="2" ry="2" fill="#216e39" stroke="#000000" stroke-width="2"/>
<rect x="577" y="31" width="11" height="11" rx="2" ry="2" fill="#216e39" stroke="#000000" stroke-width="2"/>
<rect x="535" y="45" width="11" height="11" rx="2" ry="2" fill="#30a14e" stroke="#000000" stroke-width="2"/>
<rect x="577" y="45" width="11" height="11" rx="2" ry="2" fill="#40c463" stroke="#000000" stroke-width="2"/>
<rect x="535" y="59" width="11" height="11" rx="2" ry="2" fill="#30a14e" stroke="#000000" stroke-width="2"/>
<rect x="577" y="59" width="11" height="11" rx="2" ry="2" fill="#9be9a8" stroke="#000000" stroke-width="2"/>
<rect x="549" y="73" width="11" height="11" rx="2" ry="2" fill="#40c463" stroke="#000000" stroke-width="2"/>
<rect x="563" y="73" width="11" height="11" rx="2" ry="2" fill="#9be9a8" stroke="#000000" stroke-width="2"/>
<rect x="577" y="73" width="11" height="11" rx="2" ry="2" fill="#30a14e" stroke="#000000" stroke-width="2"/>
<rect x="577" y="87" width="11" height="11" rx="2" ry="2" fill="#216e39" stroke="#000000" stroke-width="2"/>
<rect x="577" y="101" width="11" height="11" rx="2" ry="2" fill="#30a14e" stroke="#000000" stroke-width="2"/>
<rect x="563" y="115" width="11" height="11" rx="2" ry="2" fill="#9be9a8" stroke="#000000" stroke-width="2"/>
<rect x="619" y="17" width="11" height="11" rx="2" ry="2" fill="#40c463" stroke="#000000" stroke-width="2"/>
<rect x="605" y="31" width="11" height="11" rx="2" ry="2" fill="#30a14e" stroke="#000000" stroke-width="2"/>
<rect x="619" y="31" width="11" height="11" rx="2" ry="2" fill="#40c463" stroke="#000000" stroke-width="2"/>
<rect x="633" y="31" width="11" height="11" rx="2" ry="2" fill="#216e39" stroke="#000000" stroke-width="2"/>
<rect x="619" y="45" width="11" height="11" rx="2" ry="2" fill="#216e39" stroke="#000000" stroke-width="2"/>
<rect x="619" y="59" width="11" height="11" rx="2" ry="2" fill="#216e39" stroke="#000000" stroke-width="2"/>
<rect x="619" y="73" width="11" height="11" rx="2" ry="2" fill="#40c463" stroke="#000000" stroke-width="2"/>
<rect x="619" y="87" width="11" height="11" rx="2" ry="2" fill="#30a14e" stroke="#000000" stroke-width="2"/>
<rect x="675" y="3" width="11" height="11" rx="2" ry="2" fill="#40c463" stroke="#000000" stroke-width="2"/>
<rect x="675" y="17" width="11" height="11" rx="2" ry="2" fill="#40c463" stroke="#000000" stroke-width="2"/>
<rect x="675" y="31" width="11" height="11" rx="2" ry="2" fill="#30a14e" stroke="#000000" stroke-width="2"/>
<rect x="675" y="45" width="11" height="11" rx="2" ry="2" fill="#216e39" stroke="#000000" stroke-width="2"/>
<rect x="689" y="45" width="11" height="11" rx="2" ry="2" fill="#216e39" stroke="#000000" stroke-width="2"/>
<rect x="703" y="45" width="11" height="11" rx="2" ry="2" fill="#30a14e" stroke="#000000" stroke-width="2"/>
<rect x="675" y="59" width="11" height="11" rx="2" ry="2" fill="#40c463" stroke="#000000" stroke-width="2"/>
<rect x="717" y="59" width="11" height="11" rx="2" ry="2" fill="#40c463" stroke="#000000" stroke-width="2"/>
<rect x="675" y="73" width="11" height="11" rx="2" ry="2" fill="#216e39" stroke="#000000" stroke-width="2"/>
<rect x="717" y="73" width="11" height="11" rx="2" ry="2" fill="#9be9a8" stroke="#000000" stroke-width="2"/>
<rect x="675" y="87" width="11" height="11" rx="2" ry="2" fill="#9be9a8" stroke="#000000" stroke-width="2"/>
<rect x="717" y="87" width="11" height="11" rx="2" ry="2" fill="#9be9a8" stroke="#000000" stroke-width="2"/>
<rect x="759" y="31" width="11" height="11" rx="2" ry="2" fill="#40c463" stroke="#000000" stroke-width="2"/>
<rect x="773" y="31" width="11" height="11" rx="2" ry="2" fill="#40c463" stroke="#000000" stroke-width="2"/>
<rect x="787" y="31" width="11" height="11" rx="2" ry="2" fill="#216e39" stroke="#000000" stroke-width="2"/>
<rect x="745" y="45" width="11" height="11" rx="2" ry="2" fill="#9be9a8" stroke="#000000" stroke-width="2"/>
<rect x="801" y="45" width="11" height="11" rx="2" ry="2" fill="#216e39" stroke="#000000" stroke-width="2"/>
<rect x="745" y="59" width="11" height="11" rx="2" ry="2" fill="#216e39" stroke="#000000" stroke-width="2"/>
<rect x="801" y="59" width="11" height="11" rx="2" ry="2" fill="#216e39" stroke="#000000" stroke-width="2"/>
<rect x="745" y="73" width="11" height="11" rx="2" ry="2" fill="#30a14e" stroke="#000000" stroke-width="2"/>
<rect x="801" y="73" width="11" height="11" rx="2" ry="2" fill="#9be9a8" stroke="#000000" stroke-width="2"/>
<rect x="759" y="87" width="11" height="11" rx="2" ry="2" fill="#9be9a8" stroke="#000000" stroke-width="2"/>
<rect x="773" y="87" width="11" height="11" rx="2" ry="2" fill="#30a14e" stroke="#000000" stroke-width="2"/>
<rect x="787" y="87" width="11" height="11" rx="2" ry="2" fill="#30a14e" stroke="#000000" stroke-width="2"/>
<rect x="829" y="31" width="11" height="11" rx="2" ry="2" fill="#9be9a8" stroke="#000000" stroke-width="2"/>
<rect x="857" y="31" width="11" height="11" rx="2" ry="2" fill="#30a14e" stroke="#000000" stroke-width="2"/>
<rect x="871" y="31" width="11" height="11" rx="2" ry="2" fill="#216e39" stroke="#000000" stroke-width="2"/>
<rect x="829" y="45" width="11" height="11" rx="2" ry="2" fill="#40c463" stroke="#000000" stroke-width="2"/>
<rect x="843" y="45" width="11" height="11" rx="2" ry="2" fill="#216e39" stroke="#000000" stroke-width="2"/>
<rect x="885" y="45" width="11" height="11" rx="2" ry="2" fill="#9be9a8" stroke="#000000" stroke-width="2"/>
<rect x="829" y="59" width="11" height="11" rx="2" ry="2" fill="#30a14e" stroke="#000000" stroke-width="2"/>
<rect x="885" y="59" width="11" height="11" rx="2" ry="2" fill="#40c463" stroke="#000000" stroke-width="2"/>
<rect x="829" y="73" width="11" height="11" rx="2" ry="2" fill="#9be9a8" stroke="#000000" stroke-width="2"/>
<rect x="885" y="73" width="11" height="11" rx="2" ry="2" fill="#30a14e" stroke="#000000" stroke-width="2"/>
<rect x="829" y="87" width="11" height="11" rx="2" ry="2" fill="#40c463" stroke="#000000" stroke-width="2"/>
<rect x="885" y="87" width="11" height="11" rx="2" ry="2" fill="#40c463" stroke="#000000" stroke-width="2"/>
</g>
</svg>
